<svg version="1.2" baseProfile="tiny-ps" xmlns="http://www.w3.org/2000/svg" viewBox="0 0 25 30" width="25" height="30">
	<title>Contact</title>
	<style>
		tspan { white-space:pre }
		.shp0 { fill: #ffffff } 
	</style>
	<g id="Contact">
		<g id="Info">
			<g id="Address">
				<path id="Composite Path" class="shp0" d="M23.9 18.5L22 20.41L20.42 18.84C23.87 15 23.79 9.09 20.1 5.4C18.25 3.55 15.79 2.53 13.18 2.53C10.74 2.53 8.45 3.45 6.65 5.07L5.08 3.5L6.99 1.59C7.19 1.39 7.19 1.06 6.99 0.86C6.79 0.66 6.47 0.66 6.27 0.86L3.99 3.13C1.54 5.59 0.19 8.85 0.19 12.32C0.19 15.79 1.54 19.05 3.99 21.5C6.35 23.86 9.46 25.19 12.78 25.28C12.59 26.26 11.94 28.36 9.68 28.36L9.04 28.36C8.75 28.36 8.52 28.59 8.52 28.87C8.52 29.15 8.75 29.38 9.04 29.38L17.31 29.38C17.6 29.38 17.83 29.15 17.83 28.87C17.83 28.59 17.6 28.36 17.31 28.36L12.33 28.36C13.25 27.48 13.67 26.22 13.82 25.27C17.04 25.11 20.06 23.8 22.36 21.5L24.63 19.23C24.83 19.03 24.83 18.7 24.63 18.5C24.43 18.3 24.1 18.3 23.9 18.5L23.9 18.5ZM19.37 6.13C22.78 9.54 22.78 15.1 19.37 18.51C17.72 20.16 15.52 21.08 13.18 21.08C10.84 21.08 8.64 20.16 6.98 18.51C3.57 15.1 3.56 9.54 6.98 6.13C8.64 4.47 10.83 3.56 13.18 3.56C15.51 3.56 17.71 4.47 19.37 6.13L19.37 6.13ZM1.22 12.32C1.22 9.3 2.36 6.47 4.39 4.26L5.93 5.8C2.48 9.64 2.56 15.55 6.26 19.24C8.11 21.09 10.56 22.11 13.18 22.11C15.62 22.11 17.9 21.19 19.7 19.56L21.23 21.1C19.02 23.13 16.2 24.28 13.18 24.28C9.98 24.28 6.98 23.03 4.72 20.77C2.46 18.52 1.22 15.51 1.22 12.32L1.22 12.32Z" />
			</g>
		</g>
	</g>
</svg>