<svg version="1.2" baseProfile="tiny-ps" xmlns="http://www.w3.org/2000/svg" viewBox="0 0 25 25" width="25" height="25">
	<title>Services</title>
	<style>
		tspan { white-space:pre }
		.shp0 { fill: #17191e } 
	</style>
	<g id="Services">
		<g id="App">
			<path id="Shape 2" class="shp0" d="M12.93 17.76L12.93 16.19L11.66 16.19L11.66 17.79C10.23 18.08 9.1 19.19 8.79 20.61L0.35 20.61L0.35 21.89L8.73 21.89C8.96 23.71 10.51 25.12 12.4 25.12C14.29 25.12 15.84 23.71 16.07 21.89L24.64 21.89L24.64 20.61L16.01 20.61C15.68 19.13 14.46 17.98 12.93 17.76ZM12.4 23.85C11.06 23.85 9.97 22.76 9.97 21.42C9.97 20.08 11.06 19 12.4 18.99C13.74 19 14.82 20.08 14.83 21.42C14.82 22.76 13.74 23.85 12.4 23.85ZM22.74 -0.13L2.26 -0.13C1.14 -0.12 0.24 0.78 0.24 1.9L0.24 13.3C0.24 14.41 1.14 15.32 2.26 15.32L22.74 15.32C23.85 15.32 24.76 14.41 24.76 13.3L24.76 1.9C24.76 0.78 23.85 -0.12 22.74 -0.13ZM23.49 13.3C23.49 13.7 23.15 14.04 22.74 14.05L2.26 14.05C1.85 14.04 1.51 13.7 1.51 13.3L1.51 1.9C1.51 1.49 1.85 1.15 2.26 1.15L22.74 1.15C23.15 1.15 23.49 1.49 23.49 1.9L23.49 13.3L23.49 13.3Z" />
		</g>
	</g>
</svg>