<svg version="1.2" baseProfile="tiny-ps" xmlns="http://www.w3.org/2000/svg" viewBox="0 0 47 42" width="47" height="42">
	<title>Stats</title>
	<style>
		tspan { white-space:pre }
		.shp0 { fill: #ffda00 } 
	</style>
	<g id="Stats">
		<g id="Awards">
			<path id="Shape 6" class="shp0" d="M22.81 40.7C22.76 40.65 22.72 40.62 22.71 40.61L22.71 40.61L23.08 40.26L22.71 40.6C16.53 34.42 11.01 29.05 7.01 24.47L7.01 24.47C3.03 19.88 0.44 16.2 0.38 12.81L0.38 12.81C0.38 12.75 0.38 12.67 0.39 12.56L0.39 12.56C0.43 5.96 5.77 0.63 12.38 0.62L12.38 0.62C17.19 0.62 21.32 3.46 23.23 7.54L23.23 7.54L23.5 8.12L23.51 8.1L23.77 7.54C25.68 3.46 29.82 0.62 34.62 0.62L34.62 0.62C41.25 0.63 46.6 5.99 46.61 12.56L46.61 12.56C46.61 12.65 46.61 12.74 46.62 12.82L46.62 12.82C46.56 16.2 43.96 19.89 39.99 24.48L39.99 24.48C35.99 29.04 30.49 34.4 24.32 40.58L24.32 40.58C24.3 40.6 24.28 40.62 24.27 40.63L24.27 40.63L24.27 40.63L23.58 41.38L22.81 40.7L22.81 40.7ZM2.48 12.61L2.48 12.67L2.48 12.7C2.48 12.7 2.47 12.74 2.47 12.81L2.47 12.81C2.41 15 4.64 18.65 8.58 23.1L8.58 23.1C12.35 27.41 17.6 32.55 23.5 38.44L23.5 38.44C29.41 32.54 34.65 27.41 38.42 23.1L38.42 23.1C42.35 18.66 44.59 15.01 44.53 12.82L44.53 12.82C44.53 12.76 44.53 12.7 44.52 12.61L44.52 12.61C44.51 7.13 40.1 2.72 34.62 2.71L34.62 2.71C30.66 2.71 27.24 5.05 25.66 8.42L25.66 8.42L25.4 8.99L25.25 9.3L25.21 9.35C24.87 9.9 24.25 10.31 23.5 10.31L23.5 10.31C22.71 10.31 22.05 9.84 21.7 9.21L21.7 9.21C21.69 9.19 21.65 9.12 21.6 9L21.6 9L21.34 8.43C19.76 5.05 16.35 2.71 12.39 2.71L12.39 2.71C6.91 2.72 2.49 7.13 2.48 12.61L2.48 12.61ZM23.56 8.26C23.56 8.26 23.56 8.26 23.54 8.23L23.54 8.23L23.54 8.23L23.56 8.26L23.56 8.26Z" />
		</g>
	</g>
</svg>