<svg version="1.2" baseProfile="tiny-ps" xmlns="http://www.w3.org/2000/svg" viewBox="0 0 30 27" width="30" height="27">
	<title>Services</title>
	<style>
		tspan { white-space:pre }
		.shp0 { fill: #17191e } 
	</style>
	<g id="Services">
		<g id="Coding">
			<path id="Composite Path" class="shp0" d="M27.43 8.74L20.87 8.73C20.77 7.03 20.28 5.48 19.51 4.29C18.7 3.04 17.52 2.15 16.15 2.06L16.15 2.04L15.9 2.04L15.9 2.04L15.89 2.04L9.45 2.04C9.29 1.14 8.51 0.47 7.57 0.47L5.82 0.47C4.76 0.47 3.91 1.32 3.9 2.38L3.9 5.6L1.14 5.6C0.79 5.6 0.5 5.89 0.5 6.24C0.5 6.59 0.79 6.88 1.14 6.88L3.9 6.88L3.9 12.19L1.14 12.19C0.79 12.19 0.5 12.48 0.5 12.83L0.5 12.83C0.5 13.18 0.79 13.47 1.14 13.47L3.9 13.47L3.9 16.02C3.91 17.08 4.76 17.93 5.82 17.93L7.57 17.93C8.39 17.93 9.07 17.42 9.35 16.71L15.89 16.71C15.89 16.71 15.89 16.71 15.89 16.71L15.9 16.71L16.15 16.71L16.15 16.69C17.52 16.59 18.7 15.71 19.51 14.46C20.28 13.27 20.77 11.72 20.87 10.01L27.43 10.01C27.78 10.01 28.07 10.3 28.07 10.65L28.07 21.6C28.07 21.95 27.78 22.24 27.43 22.24L13.5 22.24C12.44 22.24 11.59 23.1 11.59 24.15L11.59 26.55L12.86 26.55L12.86 24.15C12.86 23.81 13.15 23.52 13.5 23.52L27.43 23.52C28.49 23.51 29.34 22.66 29.35 21.6L29.35 10.65C29.34 9.59 28.49 8.74 27.43 8.74ZM8.21 16.02C8.21 16.36 7.92 16.66 7.57 16.66L5.82 16.66C5.47 16.66 5.18 16.36 5.18 16.02L5.18 2.38C5.18 2.03 5.47 1.74 5.82 1.74L7.57 1.74C7.92 1.74 8.21 2.03 8.21 2.38L8.21 16.02ZM9.51 15.43L9.51 3.31L13.06 3.31L14.87 3.31L14.87 3.55L14.87 15.2L14.87 15.43L13.06 15.43L9.51 15.43ZM18.44 13.76C17.79 14.76 16.98 15.32 16.15 15.42L16.15 3.33C16.98 3.42 17.79 3.99 18.44 4.98C19.15 6.07 19.62 7.64 19.62 9.37C19.62 11.11 19.15 12.68 18.44 13.76Z" />
		</g>
	</g>
</svg>