<svg version="1.2" baseProfile="tiny-ps" xmlns="http://www.w3.org/2000/svg" viewBox="0 0 48 44" width="48" height="44">
	<title>Stats</title>
	<style>
		tspan { white-space:pre }
		.shp0 { fill: #ffda00 } 
	</style>
	<g id="Stats">
		<g id="Projects">
			<path id="Shape 7" class="shp0" d="M47.75 13.13C47.75 10.04 45.59 7.35 42.65 7.32L33.07 7.32L33.07 3.05C33.06 1.31 31.66 -0.1 29.92 -0.1L18.08 -0.1C16.34 -0.1 14.93 1.31 14.93 3.05L14.93 7.32L5.35 7.32C2.41 7.35 0.25 10.04 0.25 13.13L0.25 18.68C0.25 18.72 0.25 18.76 0.25 18.78C0.25 18.81 0.25 18.85 0.25 18.89C0.25 19.16 0.28 19.41 0.33 19.62C0.63 20.82 1.42 21.78 2.56 22.61L2.56 37.09C2.56 40.95 5.7 44.1 9.57 44.1L38.43 44.1C42.29 44.1 45.44 40.95 45.44 37.09L45.44 22.61C46.57 21.78 47.37 20.81 47.66 19.62C47.71 19.41 47.75 19.16 47.75 18.89C47.75 18.85 47.75 18.81 47.75 18.78C47.75 18.75 47.75 18.72 47.75 18.68L47.75 13.13ZM16.91 3.05C16.91 2.41 17.44 1.88 18.08 1.88L29.92 1.88C30.56 1.88 31.09 2.41 31.09 3.05L31.09 7.32L16.9 7.32L16.91 3.05ZM43.46 23.79L43.46 37.09C43.45 39.85 41.19 42.12 38.43 42.12L9.57 42.12C6.8 42.12 4.54 39.85 4.54 37.09L4.54 23.79C4.6 23.83 4.69 23.86 4.76 23.89C5.14 24.07 5.54 24.25 5.95 24.42C9.08 25.65 13.29 26.53 18.1 26.94L18.1 29.05C18.11 30.42 19.21 31.52 20.57 31.52L27.42 31.52C28.79 31.52 29.89 30.42 29.89 29.05L29.89 26.94C32.03 26.76 34.04 26.49 35.89 26.13C38.22 25.68 40.3 25.1 42.04 24.42L42.04 24.42L42.04 24.42C42.46 24.24 42.86 24.07 43.25 23.88C43.31 23.85 43.39 23.82 43.46 23.79ZM20.08 25.09L20.08 24.19C20.08 23.92 20.31 23.69 20.57 23.69L27.42 23.69C27.68 23.69 27.92 23.92 27.92 24.19L27.92 25.09L27.92 25.1L27.92 27.07L27.92 27.08L27.92 29.05C27.92 29.31 27.68 29.54 27.42 29.54L20.57 29.54C20.31 29.54 20.08 29.31 20.08 29.05L20.08 27.08L20.08 27.07L20.08 25.1L20.08 25.09ZM42.65 9.3C44.23 9.3 45.77 10.91 45.77 13.13L45.77 18.65C45.77 18.68 45.76 18.72 45.76 18.78C45.76 18.85 45.77 18.9 45.77 18.92C45.77 19 45.75 19.08 45.73 19.19C45.63 19.87 44.78 20.8 43.26 21.66C43.15 21.72 43.03 21.78 42.92 21.84C42.8 21.9 42.69 21.96 42.57 22.02C42.42 22.09 42.27 22.16 42.12 22.23C41.86 22.35 41.6 22.46 41.31 22.57C39.2 23.41 36.45 24.1 33.29 24.56C32.2 24.72 31.07 24.85 29.89 24.95L29.89 24.19C29.89 22.81 28.79 21.71 27.42 21.71L20.57 21.71C19.21 21.71 18.11 22.81 18.1 24.19L18.1 24.95C17.15 24.87 16.22 24.76 15.33 24.64C11.91 24.18 8.93 23.47 6.68 22.57C6.39 22.46 6.12 22.35 5.86 22.23C5.72 22.16 5.58 22.1 5.45 22.03C5.31 21.97 5.18 21.9 5.05 21.83C4.95 21.78 4.85 21.72 4.75 21.67C3.21 20.8 2.37 19.87 2.27 19.2C2.24 19.09 2.23 19 2.22 18.93C2.23 18.91 2.23 18.88 2.23 18.83L2.24 18.78L2.23 18.72C2.23 18.68 2.23 18.64 2.22 18.62L2.23 13.13C2.23 10.91 3.77 9.3 5.35 9.3L42.65 9.3Z" />
		</g>
	</g>
</svg>