<svg version="1.2" baseProfile="tiny-ps" xmlns="http://www.w3.org/2000/svg" viewBox="0 0 27 26" width="27" height="26">
	<title>Services</title>
	<style>
		tspan { white-space:pre }
		.shp0 { fill: #17191e } 
	</style>
	<g id="Services">
		<g id="Design">
			<path id="Shape 3" class="shp0" d="M22.66 4.75L24.81 6.9C24.93 7.03 25 7.2 25 7.37C25 7.54 24.93 7.71 24.8 7.84L24.81 7.84L11.12 21.53L12.02 22.43L25.71 8.74C26.09 8.36 26.27 7.86 26.27 7.37C26.27 6.87 26.09 6.37 25.71 6L20.5 0.79C20.12 0.41 19.63 0.23 19.13 0.23C18.64 0.23 18.14 0.41 17.76 0.79L4.07 14.48L4.97 15.38L18.66 1.7C18.79 1.57 18.96 1.5 19.13 1.5C19.3 1.5 19.47 1.57 19.6 1.7L21.75 3.85L8.77 16.83L9.67 17.73L22.66 4.75ZM3.27 17.99C3.01 17.73 2.7 17.52 2.28 17.51C1.96 17.5 1.62 17.69 1.45 17.94C1.27 18.18 1.2 18.46 1.18 18.75L0.73 23.91L0.73 23.91C0.73 23.96 0.73 24.02 0.73 24.08C0.72 24.54 0.9 24.98 1.21 25.29C1.52 25.6 1.96 25.77 2.42 25.77L2.42 25.77C2.47 25.77 2.52 25.77 2.57 25.77L7.75 25.32C8.04 25.3 8.32 25.23 8.56 25.05C8.81 24.87 9 24.54 8.99 24.22C8.98 23.8 8.78 23.49 8.52 23.23L3.27 17.99ZM2.48 24.5C2.46 24.5 2.44 24.5 2.42 24.5C2.14 24.48 2.02 24.36 2 24.08C2 24.07 2 24.06 2 24.02L2 24.02L2.44 18.96L7.55 24.06L2.48 24.5Z" />
		</g>
	</g>
</svg>