<svg version="1.2" baseProfile="tiny-ps" xmlns="http://www.w3.org/2000/svg" viewBox="0 0 18 18" width="18" height="18">
	<title>Footer</title>
	<style>
		tspan { white-space:pre }
		.shp0 { fill: #ffffff } 
	</style>
	<g id="Footer">
		<g id="Social">
			<path id="Dribble" class="shp0" d="M17.76 7.35C17.64 6.79 17.47 6.24 17.25 5.7C17.03 5.18 16.75 4.68 16.44 4.21C16.12 3.75 15.76 3.31 15.37 2.92C14.97 2.52 14.53 2.16 14.07 1.84C13.6 1.53 13.1 1.25 12.58 1.03C12.05 0.81 11.49 0.64 10.92 0.52C10.35 0.4 9.75 0.34 9.16 0.34C8.56 0.34 7.97 0.4 7.39 0.52C6.82 0.64 6.27 0.81 5.74 1.03C5.22 1.25 4.72 1.53 4.25 1.84C3.78 2.16 3.34 2.52 2.95 2.92C2.55 3.31 2.19 3.75 1.88 4.21C1.56 4.68 1.29 5.18 1.07 5.7C0.84 6.24 0.67 6.79 0.55 7.35C0.44 7.93 0.38 8.53 0.38 9.12C0.38 9.72 0.44 10.31 0.55 10.89C0.67 11.45 0.84 12.01 1.07 12.54C1.29 13.06 1.56 13.56 1.88 14.03C2.19 14.5 2.55 14.94 2.95 15.33C3.34 15.73 3.78 16.09 4.25 16.4C4.72 16.72 5.22 16.99 5.74 17.21C6.27 17.44 6.82 17.61 7.39 17.72C7.97 17.84 8.56 17.9 9.16 17.9C9.75 17.9 10.35 17.84 10.92 17.72C11.49 17.61 12.05 17.44 12.58 17.21C13.1 16.99 13.6 16.72 14.07 16.4C14.53 16.09 14.97 15.73 15.37 15.33C15.76 14.94 16.12 14.5 16.44 14.03C16.75 13.56 17.03 13.06 17.25 12.54C17.47 12.01 17.64 11.45 17.76 10.89C17.88 10.31 17.94 9.72 17.94 9.12C17.94 8.53 17.88 7.93 17.76 7.35ZM16.65 9.05C16.54 9.02 14.01 8.48 11.43 8.8C11.38 8.67 11.32 8.54 11.27 8.42C11.11 8.05 10.94 7.68 10.77 7.33C13.73 6.12 14.93 4.38 14.95 4.36C16 5.64 16.64 7.27 16.65 9.05ZM14.11 3.5C14.09 3.53 13.02 5.15 10.19 6.21C8.91 3.86 7.5 1.98 7.39 1.84C7.96 1.7 8.55 1.62 9.16 1.62C11.06 1.62 12.79 2.33 14.11 3.5ZM7.36 1.84L7.36 1.84C7.36 1.84 7.35 1.85 7.34 1.85C7.34 1.85 7.35 1.85 7.36 1.84ZM5.96 2.34C6.06 2.47 7.44 4.36 8.74 6.66C5.14 7.62 2.02 7.58 1.82 7.58C2.31 5.26 3.87 3.33 5.96 2.34ZM1.66 9.12C1.66 9.04 1.66 8.96 1.66 8.89C1.8 8.89 5.5 8.97 9.36 7.82C9.58 8.24 9.78 8.67 9.97 9.09C9.87 9.12 9.77 9.15 9.67 9.18C5.63 10.49 3.58 14.13 3.58 14.13L3.58 14.13C2.39 12.8 1.66 11.05 1.66 9.12ZM9.16 16.62C7.34 16.62 5.68 15.98 4.38 14.9C4.48 14.98 4.55 15.03 4.55 15.03C4.55 15.03 5.98 11.9 10.43 10.35C10.45 10.34 10.47 10.34 10.48 10.34C11.54 13.08 11.97 15.37 12.08 16.03C11.18 16.41 10.2 16.62 9.16 16.62ZM13.35 15.34C13.27 14.89 12.87 12.69 11.89 9.99C14.31 9.6 16.41 10.26 16.56 10.31C16.23 12.4 15.03 14.21 13.35 15.34Z" />
		</g>
	</g>
</svg>