<svg version="1.2" baseProfile="tiny-ps" xmlns="http://www.w3.org/2000/svg" viewBox="0 0 47 46" width="47" height="46">
	<title>Stats</title>
	<style>
		tspan { white-space:pre }
		.shp0 { fill: #ffda00 } 
	</style>
	<g id="Stats">
		<g id="Coffee">
			<path id="Shape 4" class="shp0" d="M26.52 8.28C26.52 4.82 29.32 2.02 32.78 2.02C35.43 2.02 37.58 4.17 37.59 6.83C37.58 8.84 35.95 10.47 33.94 10.47C32.44 10.47 31.23 9.25 31.23 7.76L29.22 7.76L29.22 7.76C29.22 10.36 31.33 12.48 33.94 12.48C37.06 12.48 39.6 9.95 39.6 6.83C39.6 3.06 36.54 0.01 32.78 0.01C28.21 0.01 24.51 3.71 24.51 8.28L24.51 14.53L26.52 14.53L26.52 8.28ZM13.81 45.99L38.8 45.99L38.8 43.98L13.81 43.98L13.81 45.99ZM5.75 16.43L5.75 17.44L5.75 17.44C5.75 18.98 5.87 20.49 6.09 21.96C2.86 22.58 0.42 25.42 0.42 28.83C0.42 32.69 3.55 35.82 7.41 35.82C8.86 35.82 10.21 35.37 11.33 34.62C15.02 39.42 20.26 42.44 26.17 42.47C37.62 42.42 46.56 31.11 46.58 17.44L46.58 17.44L46.58 16.43L5.75 16.43ZM7.41 33.81C4.66 33.81 2.43 31.58 2.42 28.83C2.43 26.4 4.16 24.39 6.46 23.94C7.19 27.27 8.46 30.33 10.17 32.97C9.38 33.5 8.43 33.81 7.41 33.81ZM39.11 33.79C35.75 37.95 31.18 40.45 26.17 40.45C21.15 40.45 16.59 37.95 13.22 33.79C13.08 33.62 12.96 33.43 12.82 33.25C12.4 32.69 11.99 32.1 11.61 31.48C10.24 29.27 9.19 26.74 8.54 23.99C8.37 23.29 8.23 22.59 8.12 21.87C7.95 20.75 7.82 19.61 7.77 18.44L44.55 18.44C44.35 24.45 42.29 29.86 39.11 33.79Z" />
		</g>
	</g>
</svg>