<svg version="1.2" baseProfile="tiny-ps" xmlns="http://www.w3.org/2000/svg" viewBox="0 0 27 27" width="27" height="27">
	<title>Contact</title>
	<style>
		tspan { white-space:pre }
		.shp0 { fill: #ffffff } 
	</style>
	<g id="Contact">
		<g id="Info">
			<g id="Mail">
				<path id="Composite Path" class="shp0" d="M26.69 10.18C26.69 10.05 26.62 9.94 26.54 9.85C26.52 9.84 26.53 9.82 26.51 9.81L23.56 7.52L23.56 0.61C23.56 0.35 23.35 0.15 23.09 0.15L4.28 0.15C4.02 0.15 3.81 0.35 3.81 0.61L3.81 7.52L0.85 9.81C0.84 9.82 0.85 9.84 0.83 9.85C0.74 9.94 0.67 10.05 0.67 10.18L0.67 25.85C0.67 25.88 0.69 25.91 0.7 25.94C0.7 25.96 0.69 25.98 0.7 26.01C0.71 26.02 0.72 26.03 0.73 26.05C0.75 26.1 0.79 26.13 0.82 26.17C0.85 26.2 0.87 26.23 0.91 26.25C0.92 26.25 0.92 26.27 0.93 26.27C1 26.3 1.06 26.31 1.12 26.32C1.13 26.32 1.13 26.32 1.14 26.32L26.23 26.32C26.3 26.32 26.37 26.31 26.43 26.28C26.45 26.27 26.45 26.25 26.47 26.25C26.5 26.23 26.52 26.2 26.54 26.18C26.58 26.14 26.61 26.1 26.64 26.05C26.65 26.03 26.66 26.02 26.67 26.01C26.67 25.98 26.66 25.96 26.67 25.94C26.67 25.91 26.69 25.89 26.69 25.86L26.69 10.18ZM1.61 11.13L3.99 12.98L10.49 18.02L1.61 24.9L1.61 11.13ZM21.94 21.94L16.88 18.02L25.38 11.43L25.76 11.13L25.76 24.9L21.94 21.94ZM25.47 10.18L23.56 11.66L23.56 8.7L25.47 10.18ZM4.75 1.08L22.62 1.08L22.62 7.75L22.62 12.22L13.69 19.15L4.75 12.22L4.75 7.75L4.75 1.08ZM3.81 8.7L3.81 11.66L3.25 11.23L1.9 10.18L3.81 8.7ZM2.5 25.39L11.25 18.61L13.4 20.27C13.57 20.4 13.8 20.4 13.97 20.27L16.12 18.61L24.86 25.39L2.5 25.39Z" />
			</g>
		</g>
	</g>
</svg>