<svg version="1.2" baseProfile="tiny-ps" xmlns="http://www.w3.org/2000/svg" viewBox="0 0 18 16" width="18" height="16">
	<title>Footer</title>
	<style>
		tspan { white-space:pre }
		.shp0 { fill: #ffffff } 
	</style>
	<g id="Footer">
		<g id="Social">
			<path id="Google" class="shp0" d="M17.48 6.51L14.81 6.51L14.81 3.84C14.81 3.64 14.64 3.47 14.44 3.47L13.68 3.47C13.48 3.47 13.31 3.64 13.31 3.84L13.31 6.51L10.64 6.51C10.44 6.51 10.27 6.67 10.27 6.88L10.27 7.64C10.27 7.84 10.44 8 10.64 8L13.31 8L13.31 10.67C13.31 10.88 13.48 11.04 13.68 11.04L14.44 11.04C14.64 11.04 14.81 10.88 14.81 10.67L14.81 8L17.48 8C17.68 8 17.85 7.84 17.85 7.64L17.85 6.88C17.85 6.67 17.68 6.51 17.48 6.51ZM8.51 8.85C7.95 8.45 7.44 7.87 7.43 7.69C7.43 7.36 7.46 7.2 8.19 6.64C9.14 5.89 9.66 4.92 9.66 3.89C9.66 2.96 9.37 2.13 8.89 1.55L9.26 1.55C9.34 1.55 9.42 1.53 9.48 1.48L10.53 0.72C10.66 0.63 10.71 0.46 10.67 0.31C10.62 0.16 10.47 0.05 10.31 0.05L5.62 0.05C5.11 0.05 4.59 0.14 4.07 0.32C2.36 0.91 1.17 2.37 1.17 3.86C1.17 5.98 2.81 7.59 5 7.64C4.96 7.81 4.94 7.97 4.94 8.14C4.94 8.46 5.02 8.77 5.19 9.07C5.17 9.07 5.15 9.07 5.13 9.07C3.04 9.07 1.15 10.1 0.43 11.63C0.25 12.02 0.15 12.43 0.15 12.82C0.15 13.21 0.25 13.58 0.45 13.93C0.89 14.74 1.86 15.36 3.17 15.69C3.85 15.86 4.57 15.95 5.33 15.95C6 15.95 6.65 15.86 7.24 15.69C9.11 15.15 10.31 13.78 10.31 12.2C10.31 10.68 9.82 9.77 8.51 8.85ZM2.58 12.32C2.58 11.22 3.98 10.25 5.58 10.25L5.62 10.25C5.97 10.25 6.31 10.3 6.63 10.4C6.74 10.48 6.85 10.55 6.95 10.62C7.69 11.12 8.18 11.45 8.31 11.99C8.35 12.12 8.36 12.26 8.36 12.39C8.36 13.76 7.34 14.46 5.32 14.46C3.78 14.46 2.58 13.52 2.58 12.32ZM4.04 1.89C4.29 1.61 4.61 1.46 4.98 1.46L5.02 1.46C6.06 1.49 7.05 2.64 7.24 4.03C7.34 4.81 7.16 5.54 6.77 5.99C6.52 6.28 6.2 6.43 5.82 6.43L5.82 6.43L5.8 6.43C4.79 6.4 3.77 5.19 3.59 3.81C3.49 3.03 3.65 2.33 4.04 1.89Z" />
		</g>
	</g>
</svg>