<svg version="1.2" baseProfile="tiny-ps" xmlns="http://www.w3.org/2000/svg" viewBox="0 0 43 42" width="43" height="42">
	<title>Stats</title>
	<style>
		tspan { white-space:pre }
		.shp0 { fill: #ffda00 } 
	</style>
	<g id="Stats">
		<g id="Mail">
			<path id="Shape 5" class="shp0" d="M36.48 7.5L40 11.02C40.21 11.22 40.31 11.5 40.32 11.78C40.31 12.07 40.21 12.34 40 12.55L40 12.55L17.6 34.95L19.08 36.43L41.48 14.03C42.09 13.41 42.4 12.59 42.4 11.78C42.4 10.97 42.09 10.16 41.48 9.54L32.96 1.02C32.34 0.4 31.52 0.1 30.71 0.1C29.9 0.1 29.09 0.4 28.47 1.02L6.07 23.42L7.55 24.9L29.95 2.5C30.16 2.29 30.43 2.18 30.71 2.18C31 2.18 31.27 2.29 31.48 2.5L35 6.02L13.76 27.26L15.24 28.74L36.48 7.5ZM4.76 29.16C4.33 28.74 3.82 28.4 3.14 28.38C2.61 28.37 2.07 28.68 1.79 29.08C1.49 29.48 1.38 29.93 1.33 30.42L0.61 38.85L0.61 38.85C0.6 38.94 0.6 39.03 0.6 39.13C0.59 39.88 0.88 40.6 1.39 41.1C1.9 41.61 2.61 41.9 3.37 41.9L3.37 41.9C3.45 41.9 3.54 41.9 3.62 41.89L12.09 41.17C12.57 41.13 13.02 41.01 13.42 40.71C13.82 40.43 14.13 39.89 14.12 39.36C14.11 38.68 13.77 38.17 13.34 37.74L4.76 29.16ZM3.46 39.81C3.44 39.81 3.41 39.82 3.37 39.82C2.91 39.78 2.71 39.59 2.68 39.13C2.68 39.12 2.68 39.09 2.68 39.04L2.69 39.04L3.4 30.75L11.75 39.1L3.46 39.81Z" />
		</g>
	</g>
</svg>