<svg version="1.2" baseProfile="tiny-ps" xmlns="http://www.w3.org/2000/svg" viewBox="0 0 30 30" width="30" height="30">
	<title>Contact</title>
	<style>
		tspan { white-space:pre }
		.shp0 { fill: #ffffff } 
	</style>
	<g id="Contact">
		<g id="Info">
			<g id="Phone">
				<path id="Shape 1" class="shp0" d="M9.74 10.75C8.5 10.75 7.5 11.76 7.5 12.99C7.5 14.23 8.5 15.23 9.74 15.23C10.97 15.23 11.98 14.23 11.98 12.99C11.98 11.76 10.97 10.75 9.74 10.75ZM9.74 14.21C9.07 14.21 8.52 13.66 8.52 12.99C8.52 12.32 9.07 11.78 9.74 11.78C10.41 11.78 10.95 12.32 10.95 12.99C10.95 13.66 10.41 14.21 9.74 14.21ZM15 10.75C13.76 10.75 12.76 11.76 12.76 12.99C12.76 14.23 13.76 15.23 15 15.23C16.23 15.23 17.24 14.23 17.24 12.99C17.24 11.76 16.23 10.75 15 10.75ZM15 14.21C14.33 14.21 13.79 13.66 13.79 12.99C13.79 12.32 14.33 11.78 15 11.78C15.67 11.78 16.21 12.32 16.21 12.99C16.21 13.66 15.67 14.21 15 14.21ZM20.26 10.75C19.02 10.75 18.01 11.76 18.01 12.99C18.01 14.23 19.02 15.23 20.26 15.23C21.5 15.23 22.5 14.23 22.5 12.99C22.5 11.76 21.5 10.75 20.26 10.75ZM20.26 14.21C19.59 14.21 19.05 13.66 19.05 12.99C19.05 12.32 19.59 11.78 20.26 11.78C20.93 11.78 21.47 12.32 21.47 12.99C21.47 13.66 20.93 14.21 20.26 14.21ZM15 0.3C7.18 0.3 0.82 5.96 0.82 12.91C0.82 19.86 7.18 25.52 15 25.52C16.51 25.52 18.01 25.3 19.47 24.86L24.31 29.7L24.31 22.41C27.41 20.01 29.18 16.56 29.18 12.91C29.18 5.96 22.82 0.3 15 0.3ZM23.49 21.75L23.28 21.9L23.28 27.22L19.76 23.69L19.46 23.79C18.01 24.25 16.51 24.49 15 24.49C7.75 24.49 1.85 19.29 1.85 12.91C1.85 6.52 7.75 1.33 15 1.33C22.25 1.33 28.15 6.52 28.15 12.91C28.15 16.32 26.45 19.53 23.49 21.75Z" />
			</g>
		</g>
	</g>
</svg>