<svg version="1.2" baseProfile="tiny-ps" xmlns="http://www.w3.org/2000/svg" viewBox="0 0 17 15" width="17" height="15">
	<title>Footer</title>
	<style>
		tspan { white-space:pre }
		.shp0 { fill: #ffffff } 
	</style>
	<g id="Footer">
		<g id="Social">
			<path id="Twitter" class="shp0" d="M17.01 2.2C16.36 2.49 15.67 2.68 14.95 2.77C15.69 2.32 16.26 1.62 16.52 0.78C15.83 1.19 15.06 1.49 14.24 1.65C13.59 0.96 12.66 0.52 11.62 0.52C9.64 0.52 8.03 2.13 8.03 4.11C8.03 4.39 8.07 4.66 8.13 4.93C5.14 4.78 2.5 3.35 0.73 1.18C0.42 1.71 0.24 2.32 0.24 2.98C0.24 4.23 0.88 5.32 1.84 5.97C1.25 5.95 0.7 5.79 0.21 5.52C0.21 5.53 0.21 5.55 0.21 5.57C0.21 7.3 1.45 8.76 3.09 9.09C2.79 9.17 2.47 9.21 2.14 9.21C1.91 9.21 1.69 9.19 1.47 9.15C1.93 10.57 3.25 11.61 4.82 11.64C3.59 12.6 2.05 13.18 0.37 13.18C0.07 13.18 -0.21 13.16 -0.49 13.13C1.1 14.14 2.98 14.74 5.01 14.74C11.62 14.74 15.23 9.27 15.23 4.52C15.23 4.37 15.22 4.21 15.22 4.06C15.92 3.55 16.53 2.92 17.01 2.2Z" />
		</g>
	</g>
</svg>