<svg version="1.2" baseProfile="tiny-ps" xmlns="http://www.w3.org/2000/svg" viewBox="0 0 18 18" width="18" height="18">
	<title>Footer</title>
	<style>
		tspan { white-space:pre }
		.shp0 { fill: #ffffff } 
	</style>
	<g id="Footer">
		<g id="Social">
			<path id="Youtube" class="shp0" d="M14.53 8.6L3.47 8.6C1.71 8.6 0.29 10.02 0.29 11.78L0.29 14.34C0.29 16.09 1.71 17.52 3.47 17.52L14.53 17.52C16.29 17.52 17.71 16.09 17.71 14.34L17.71 11.78C17.71 10.02 16.29 8.6 14.53 8.6ZM5.79 10.59L4.77 10.59L4.77 15.7L3.78 15.7L3.78 10.59L2.75 10.59L2.75 9.72L5.79 9.72L5.79 10.59ZM8.7 15.7L7.82 15.7L7.82 15.21C7.65 15.39 7.49 15.53 7.31 15.62C7.13 15.72 6.96 15.76 6.8 15.76C6.59 15.76 6.44 15.7 6.34 15.56C6.23 15.43 6.18 15.24 6.18 14.97L6.18 11.29L7.06 11.29L7.06 14.67C7.06 14.77 7.08 14.85 7.12 14.89C7.16 14.94 7.22 14.97 7.3 14.97C7.36 14.97 7.45 14.94 7.54 14.87C7.64 14.81 7.74 14.73 7.82 14.64L7.82 11.29L8.7 11.29L8.7 15.7ZM11.9 14.79C11.9 15.1 11.83 15.34 11.69 15.5C11.55 15.67 11.35 15.75 11.09 15.75C10.92 15.75 10.76 15.72 10.63 15.66C10.49 15.59 10.37 15.49 10.25 15.36L10.25 15.7L9.36 15.7L9.36 9.72L10.25 9.72L10.25 11.64C10.37 11.51 10.5 11.41 10.63 11.34C10.77 11.27 10.9 11.23 11.04 11.23C11.32 11.23 11.53 11.33 11.68 11.51C11.82 11.7 11.9 11.98 11.9 12.34L11.9 14.79ZM14.95 13.6L13.27 13.6L13.27 14.43C13.27 14.66 13.29 14.82 13.35 14.91C13.41 15 13.51 15.05 13.65 15.05C13.8 15.05 13.9 15.01 13.96 14.93C14.02 14.85 14.05 14.69 14.05 14.43L14.05 14.23L14.95 14.23L14.95 14.45C14.95 14.9 14.84 15.24 14.62 15.48C14.4 15.7 14.07 15.82 13.63 15.82C13.24 15.82 12.93 15.7 12.7 15.45C12.47 15.21 12.36 14.88 12.36 14.45L12.36 12.47C12.36 12.09 12.48 11.78 12.73 11.54C12.98 11.3 13.3 11.18 13.7 11.18C14.1 11.18 14.41 11.29 14.63 11.51C14.85 11.74 14.95 12.05 14.95 12.47L14.95 13.6ZM13.66 11.95C13.52 11.95 13.42 11.99 13.36 12.07C13.3 12.15 13.27 12.28 13.27 12.47L13.27 12.91L14.05 12.91L14.05 12.47C14.05 12.28 14.02 12.15 13.96 12.07C13.89 11.99 13.79 11.95 13.66 11.95ZM10.62 11.93C10.56 11.93 10.5 11.95 10.44 11.98C10.37 12 10.31 12.05 10.25 12.11L10.25 14.86C10.32 14.93 10.39 14.99 10.46 15.01C10.53 15.05 10.6 15.06 10.68 15.06C10.78 15.06 10.86 15.03 10.91 14.97C10.96 14.9 10.99 14.81 10.99 14.66L10.99 12.39C10.99 12.24 10.96 12.13 10.9 12.05C10.83 11.97 10.74 11.93 10.62 11.93ZM4.92 7.07L6.04 7.07L6.04 4.33L7.34 0.48L6.2 0.48L5.51 3.11L5.44 3.11L4.71 0.48L3.59 0.48L4.92 4.46L4.92 7.07ZM8.85 7.19C9.3 7.19 9.65 7.07 9.91 6.83C10.17 6.59 10.3 6.27 10.3 5.85L10.3 3.35C10.3 2.98 10.17 2.67 9.91 2.44C9.64 2.2 9.31 2.08 8.89 2.08C8.45 2.08 8.09 2.2 7.82 2.42C7.55 2.64 7.42 2.94 7.42 3.32L7.42 5.83C7.42 6.25 7.55 6.58 7.81 6.82C8.07 7.07 8.42 7.19 8.85 7.19ZM8.44 3.28C8.44 3.18 8.48 3.09 8.55 3.02C8.63 2.96 8.73 2.93 8.85 2.93C8.98 2.93 9.09 2.96 9.17 3.02C9.25 3.09 9.29 3.18 9.29 3.28L9.29 5.93C9.29 6.06 9.25 6.16 9.17 6.24C9.09 6.31 8.98 6.34 8.85 6.34C8.71 6.34 8.62 6.31 8.54 6.24C8.47 6.16 8.44 6.06 8.44 5.93L8.44 3.28ZM11.8 7.14C11.98 7.14 12.17 7.08 12.37 6.98C12.57 6.88 12.76 6.73 12.94 6.53L12.94 7.07L13.94 7.07L13.94 2.21L12.94 2.21L12.94 5.9C12.85 6 12.75 6.09 12.64 6.16C12.53 6.22 12.43 6.26 12.36 6.26C12.27 6.26 12.2 6.23 12.16 6.18C12.12 6.13 12.09 6.05 12.09 5.93L12.09 2.21L11.1 2.21L11.1 6.27C11.1 6.56 11.16 6.77 11.28 6.92C11.39 7.06 11.57 7.14 11.8 7.14Z" />
		</g>
	</g>
</svg>